<svg height="512" viewBox="0 0 53 60" width="512" xmlns="http://www.w3.org/2000/svg"><g id="Page-1" fill="none" fill-rule="evenodd"><g id="088---Moon-Face" fill-rule="nonzero"><path id="Shape" d="m52 30c0 16.0162577-12.9837423 29-29 29-8.3147888.0069411-16.21412157-3.6338434-21.61-9.96-.51552957-.5679403-.52412632-1.4319139-.02-2.01.48903589-.5669011 1.32120911-.6863926 1.95-.28 3.242834 2.1779103 7.0741804 3.3119609 10.98 3.25.45-.01.9-.03 1.34-.07 9.9405289-.8815137 17.7373929-8.9080726 18.33-18.87.02-.36.03-.71.03-1.06s-.01-.7-.03-1.06c-.5577999-9.4259398-7.5875103-17.1997769-16.91-18.7-.9125394-.1502195-1.8352281-.2304533-2.76-.24-3.9058196-.06196095-7.737166 1.0720897-10.98 3.25-.62798555.4100498-1.46276596.2901839-1.95-.28-.240145-.2697527-.37194546-.6188458-.37-.98.00035666-.3793476.13901588-.7455502.39-1.03 5.39587843-6.32615659 13.2952112-9.96694114 21.61-9.96 16.0162577 0 29 12.9837423 29 29z" fill="#dfe4f3"/><path id="Shape" d="m12.506 49.937c-3.28408998-.259622-6.44677739-1.356888-9.186-3.187-.62879089-.4063926-1.46096411-.2869011-1.95.28-.0612251.081856-.11352235.1700238-.156.263 3.04253137 1.8281749 6.5369531 2.7660492 10.086 2.707.405-.009.808-.031 1.206-.063z" fill="#c1d0f3"/><path id="Shape" d="m23 1c-.494 0-.983.016-1.469.041 15.3954353.81952231 27.4584686 13.541768 27.4584686 28.959s-12.0630333 28.1394777-27.4584686 28.959c.486.025.975.041 1.469.041 16.0162576-.0000002 28.9999996-12.9837424 28.9999996-29s-12.983742-28.99999976-28.9999996-29z" fill="#c1d0f3"/><path id="Shape" d="m1.212 12.708c.04281469.0929081.09580553.180779.158.262.48723404.5701839 1.32201445.6900498 1.95.28 2.74718485-1.8361698 5.9205545-2.9347101 9.215-3.19-.41-.032-.821-.056-1.235-.06-3.54981375-.05906953-7.04497168.8791628-10.088 2.708z" fill="#c1d0f3"/><path id="Shape" d="m34 30c0 .35-.01.7-.03 1.06-.5926071 9.9619274-8.3894711 17.9884863-18.33 18.87-.26-1.43.45-2.47.22-3.38-.26-1.02-1.23-1.27-1.98-1.81-1.05-.67.66-2.18.83-2.33-.5783012-.0802175-1.124195-.3151591-1.58-.68-.14-.11-.27-.22-.36-.3-.43-.37.18-.99.73-2.16.2267584-.5045338.2930822-1.0665409.19-1.61-.2-1.08-1.83-1.48-2.63-2.08-1.24-.93-1.61-1.33.09-3.42 1.7382028-2.2487328 3.2269383-4.6796636 4.44-7.25.1674566-.2687381.2669878-.5741958.29-.89-.02-1.43-2.09-2.02-2.28-3.41-.15-1.08 1.24-3.05 1.69-4.98.2367459-1.1836276.5541529-2.3496808.95-3.49.2320473-.6503644.5059533-1.2850248.82-1.9 9.3224897 1.5002231 16.3522001 9.2740602 16.91 18.7.02.36.03.71.03 1.06z" fill="#9bb9ee"/><path id="Shape" d="m33.97 28.94c-.5577999-9.4259398-7.5875103-17.1997769-16.91-18.7-.106.208-.2.424-.3.639 8.0445513 2.4606997 13.7114051 9.6633068 14.21 18.061.02.36.03.71.03 1.06s-.01.7-.03 1.06c-.5310164 8.841186-6.7733631 16.2988892-15.383 18.378.0063609.1650215.0240694.3294098.053.492 9.9405289-.8815137 17.7373929-8.9080726 18.33-18.87.02-.36.03-.71.03-1.06s-.01-.7-.03-1.06z" fill="#7fa3f1"/><circle id="Oval" cx="30" cy="51" fill="#c1d0f3" r="2"/><circle id="Oval" cx="40" cy="44" fill="#c1d0f3" r="2"/><circle id="Oval" cx="29" cy="8" fill="#c1d0f3" r="2"/><circle id="Oval" cx="43" cy="20" fill="#c1d0f3" r="2"/><circle id="Oval" cx="43" cy="31" fill="#c1d0f3" r="4"/><path id="Shape" d="m23 59c.51 0 1.0173333-.0133333 1.522-.04-7.7875379-.4042446-15.06674488-3.9910583-20.132-9.92-.42601606-.4820366-.4972246-1.1820528-.177-1.74-.51998579-.352765-1.09426011-.6179446-1.7-.785-.43786809-.0022254-.85463984.187881-1.14.52-.0612251.081856-.11352235.1700238-.156.263-.32228031.5575942-.25265428 1.2586841.173 1.742 5.39755054 6.3239486 13.2958037 9.9642356 21.61 9.96z" fill="#fff"/><path id="Shape" d="m20.06 10.24c-1.4747697-.2356113-2.9725214-.29302345-4.461-.171.489.042.977.091 1.461.171-.8297884 1.7088603-1.4251614 3.521889-1.77 5.39-.45 1.93-1.84 3.9-1.69 4.98.19 1.39 2.26 1.98 2.28 3.41-.0230122.3158042-.1225434.6212619-.29.89-1.2130617 2.5703364-2.7017972 5.0012672-4.44 7.25-1.7 2.09-1.33 2.49-.09 3.42.8.6 2.43 1 2.63 2.08.367 1.91-1.606 3.18-.92 3.77.5252451.525698 1.2051817.8691712 1.94.98-.17.15-1.88 1.66-.83 2.33.75.54 1.72.79 1.98 1.81.23.91-.48 1.95-.22 3.38-.067.006-.13.005-.2.011 1.0649979.0883716 2.1356348.0846913 3.2-.011-.26-1.43.45-2.47.22-3.38-.26-1.02-1.23-1.27-1.98-1.81-1.05-.67.66-2.18.83-2.33-.7348183-.1108288-1.4147549-.454302-1.94-.98-.686-.59 1.287-1.86.92-3.77-.2-1.08-1.83-1.48-2.63-2.08-1.24-.93-1.61-1.33.09-3.42 1.7382028-2.2487328 3.2269383-4.6796636 4.44-7.25.1674566-.2687381.2669878-.5741958.29-.89-.02-1.43-2.09-2.02-2.28-3.41-.15-1.08 1.24-3.05 1.69-4.98.3448386-1.868111.9402116-3.6811397 1.77-5.39z" fill="#fff"/><path id="Shape" d="m1.39 10.96c-.44060939.4786296-.51308748 1.1903807-.178 1.748.04281469.0929081.09580553.180779.158.262.48723404.5701839 1.32201445.6900498 1.95.28.295-.192.6-.355.9-.53l-.007-.012c-.3353551-.5574039-.26328607-1.2691364.177-1.748 5.0651812-5.92903681 12.3444318-9.51587199 20.132-9.92-.504-.02666667-1.0113333-.04-1.522-.04-8.3142259-.00437074-16.21253299 3.63594109-21.61 9.96z" fill="#fff"/><path id="Shape" d="m12.262 32.369-1.578-1.229c1.5512017-2.0928434 2.8961421-4.3309502 4.016-6.683l1.784.906c-1.1778931 2.4661373-2.5918247 4.8124198-4.222 7.006z" fill="#fff"/><g fill="#428dff"><path id="Shape" d="m13.72 29.438c-.5522847.0027614-1.0022386-.4427153-1.005-.995s.4427153-1.0022386.995-1.005h.01c.5522847 0 1 .4477153 1 1s-.4477153 1-1 1z"/><path id="Shape" d="m14.6 48.978c-.106 0-.21.019-.317.02-3.7082655.0749712-7.34815779-1.0044861-10.416-3.089-1.04888993-.6771525-2.4361812-.4793334-3.254.464-.82007444.9603715-.81113233 2.3770572.021 3.327 5.58216593 6.5497019 13.7602508 10.3158771 22.366 10.3 16.5685425 0 30-13.4314575 30-30s-13.4314575-30-30-30c-8.6056603-.01546945-16.78358214 3.75063067-22.366 10.3-.83012695.9499409-.83906195 2.3646495-.021 3.325.81853227.9421936 2.20515096 1.1394906 3.254.463 3.07404308-2.0697026 6.7086152-3.1474402 10.414-3.088.439.006.869.046 1.3.082-.1.236-.2.473-.276.7-.3841226 1.0849134-.6922017 2.1952677-.922 3.323l-.067.293c-.2219659.8076819-.517537 1.5933053-.883 2.347-.5329153.9105216-.8174014 1.9450163-.825 3 .2015742.8957529.7191931 1.6888672 1.458 2.234.49.449.81.764.814 1.04-.029263.1491313-.0873486.2911185-.171.418-.2449617.4844712-.0586448 1.0758976.4197718 1.3324831s1.0741684.0846001 1.3422282-.3874831c.25009-.4172456.3907719-.8908861.409-1.377-.1032917-1.0051599-.6359561-1.9166321-1.461-2.5-.19-.175-.372-.344-.519-.507h6.1c.5522847 0 1-.4477153 1-1s-.4477153-1-1-1h-5.934l.193-.436c.217-.487.448-1.016.65-1.564h6.091c.5522847 0 1-.4477153 1-1s-.4477153-1-1-1h-5.535c.1826527-.8574173.4225227-1.7016397.718-2.527.129-.366.286-.738.454-1.111 8.5476857 1.6757478 14.865606 8.9423653 15.337 17.64.0173333.3333333.026.6666667.026 1 0 .332-.009.666-.026 1-.4950187 9.0800048-7.3483292 16.5392764-16.354 17.8.031-.221.074-.442.122-.667.1735057-.5955295.2033213-1.2237144.087-1.833-.2856396-.9136295-.9525998-1.6589914-1.829-2.044-.124-.07-.248-.142-.384-.229.1400807-.2113939.3016029-.4077674.482-.586.033 0 .065.007.1.007.2876815-.0002496.5745574-.0304118.856-.09.5354205-.1183726.8756448-.6458451.762679-1.1824324-.1129657-.5365873-.6369795-.882115-1.174679-.7745676-.2581161.0558731-.5244831.0623202-.785.019-.4027323-.0558051-.7828445-.2195989-1.1-.474l-.008-.007.16-.289c.155-.273.331-.589.5-.947.31787-.6958814.4132093-1.4729138.273-2.225-.229-1.234-1.4-1.832-2.255-2.268-.2633201-.1242999-.5170212-.2680304-.759-.43-.2341751-.1630482-.454884-.3446313-.66-.543 0-.053.054-.374.926-1.446l.336-.422c.1687505-.2107194.2438239-.4813637.2077364-.7489026-.0360876-.267539-.180186-.5086198-.3987364-.6670974-.4380023-.3183968-1.0489587-.2360256-1.387.187l-.31.389c-.924 1.134-1.474 2.022-1.36 2.941.19073776.8119664.7155166 1.5056187 1.445 1.91.3321315.2320936.6830101.4361316 1.049.61.458.234 1.149.586 1.2.858.0641209.3370985.0247277.6857104-.113 1-.149.316-.3.59-.436.826-.385.684-.967 1.72-.051 2.509.1.089.246.212.4.331.1542592.1224999.31663.2344221.486.335-.3033575.4217695-.4593924.9316943-.444 1.451.0370675.5135254.3153011.979103.75 1.255.2257051.1578512.4593443.3040426.7.438.584.336.814.493.893.8.0198948.312182-.0159996.6254114-.106.925-.0962032.4145741-.1613836.8357399-.195 1.26zm20.374-17.87c.0173333-.372.026-.7413333.026-1.108s-.0093333-.7353333-.028-1.106c-.5420977-9.9011117-7.9286278-18.0773887-17.724-19.619-.054855-.01345152-.1107009-.02248049-.167-.027-.9168712-.14352164-1.8422159-.22636838-2.77-.248-4.1061973-.07455318-8.13564805 1.1178709-11.54 3.415-.21075885.1327105-.48705335.0900725-.648-.1-.17066149-.2048893-.16252459-.50467.019-.7 5.20464801-6.11077918 12.8311792-9.62641332 20.858-9.615 15.463973 0 28 12.536027 28 28s-12.536027 28-28 28c-8.0272034.0111862-15.65389734-3.5052543-20.858-9.617-.18285034-.1947863-.19101479-.4955817-.019-.7.09714673-.1132542.23878931-.1785996.388-.179.09234938-.0004345.18278037.026347.26.077 3.40969856 2.2862057 7.4352226 3.4788631 11.54 3.419.426-.006.843-.048 1.263-.08.022 0 .042.012.065.012.0600276.000088.1199396-.0052673.179-.016.013 0 .021-.01.034-.013 10.4068334-.9302872 18.5511872-9.362164 19.12-19.795z"/><path id="Shape" d="m30 54c1.6568542 0 3-1.3431458 3-3s-1.3431458-3-3-3-3 1.3431458-3 3 1.3431458 3 3 3zm0-4c.5522847 0 1 .4477153 1 1s-.4477153 1-1 1-1-.4477153-1-1 .4477153-1 1-1z"/><path id="Shape" d="m40 41c-1.6568542 0-3 1.3431458-3 3s1.3431458 3 3 3 3-1.3431458 3-3-1.3431458-3-3-3zm0 4c-.5522847 0-1-.4477153-1-1s.4477153-1 1-1 1 .4477153 1 1-.4477153 1-1 1z"/><path id="Shape" d="m29 5c-1.6568542 0-3 1.34314575-3 3s1.3431458 3 3 3 3-1.34314575 3-3-1.3431458-3-3-3zm0 4c-.5522847 0-1-.44771525-1-1s.4477153-1 1-1 1 .44771525 1 1-.4477153 1-1 1z"/><path id="Shape" d="m43 23c1.6568542 0 3-1.3431458 3-3s-1.3431458-3-3-3-3 1.3431458-3 3 1.3431458 3 3 3zm0-4c.5522847 0 1 .4477153 1 1s-.4477153 1-1 1-1-.4477153-1-1 .4477153-1 1-1z"/><path id="Shape" d="m43 36c2.7614237 0 5-2.2385763 5-5s-2.2385763-5-5-5-5 2.2385763-5 5c.0033061 2.7600532 2.2399468 4.9966939 5 5zm0-8c1.6568542 0 3 1.3431458 3 3s-1.3431458 3-3 3-3-1.3431458-3-3 1.3431458-3 3-3z"/><path id="Shape" d="m24.932 41.727c.1926515.1823933.4498847.2807584.7150798.2734439.2651951-.0073144.5166152-.1197088.6989202-.3124439 5.4909633-5.8025002 6.2028863-14.6447421 1.711-21.251-.3109363-.4575679-.9339321-.5764363-1.3915-.2655s-.5764363.9339321-.2655 1.3915c3.9646561 5.8286185 3.3358502 13.6314714-1.511 18.75-.1818834.1931721-.2795427.4507078-.2714779.7159095.0080648.2652018.1211927.5163274.3144779.6980905z"/><circle id="Oval" cx="45" cy="39" r="1"/><circle id="Oval" cx="22" cy="54" r="1"/><circle id="Oval" cx="37" cy="18" r="1"/></g></g></g></svg>